<?xml version="1.0" encoding="UTF-8"?>
<svg id="Layer_1" data-name="Layer 1" xmlns="http://www.w3.org/2000/svg" viewBox="0 0 1024 1024">
  <defs>
    <style>
      .cls-1 {
        fill: #e46bad;
        stroke: #ffd269;
        stroke-miterlimit: 10;
        stroke-width: 8px;
      }

      .cls-2 {
        fill: #fff;
      }

      .cls-3 {
        fill: #2d2a30;
      }

      .cls-4 {
        fill: #6b61fd;
      }
    </style>
  </defs>
  <rect class="cls-3" width="1024" height="1024"/>
  <path class="cls-4" d="M524.8,261.53c127.71,10.86,204.25,147.95,141.33,262.4l-152.27,236.92-2.29,1.62-152.62-236.58c-65.04-111.14,12.23-255.65,140.35-264.36h25.49ZM513.02,708.55l127.97-199.96c47.22-84.69-2.3-193.79-96.76-214.04-125.2-26.83-222.26,104.38-159.78,216.64l126.55,196.75,2.02.61Z"/>
  <path class="cls-2" d="M534.92,429.29l11.43,14.41,6.58,7.95c12.75,15.74,19.13,32.38,19.13,49.94s-5.63,32.01-16.9,44.85c-15.41,17.64-35.57,26.46-60.5,26.46-19.3,0-35.12-5.94-47.46-17.83-12.34-11.88-18.51-27.1-18.51-45.65,0-22.69,9.61-41.62,28.82-56.77,10.19-8.03,19.59-12.05,28.2-12.05,4.47,0,8.11,1.28,10.93,3.85,2.81,2.57,4.22,5.88,4.22,9.94,0,5.47-3.23,10.19-9.69,14.16l-9.94,6.09c-5.71,3.56-10.48,8.53-14.29,14.91-3.81,6.38-5.71,12.67-5.71,18.88,0,9.86,3.33,17.99,10,24.41,6.67,6.42,15.13,9.63,25.41,9.63,11.35,0,21.2-4.25,29.57-12.73,8.36-8.49,12.55-18.49,12.55-30,0-7.29-1.7-13.91-5.09-19.88-3.4-5.96-10.73-15.2-21.99-27.7-7.87-8.7-13.5-16.31-16.9-22.86h-33.54c-11.43,0-17.14-3.93-17.14-11.8,0-5.71,2.01-10.12,6.03-13.23,4.02-3.11,9.67-4.66,16.96-4.66h21.24c1.66-16.4,9.15-29.96,22.49-40.69,13.33-10.72,29.32-16.09,47.95-16.09,14,0,25.41,3.85,34.22,11.55,8.82,7.7,13.23,17.68,13.23,29.94,0,16.32-7,28.82-21,37.52-7.95,4.97-20.58,7.45-37.89,7.45h-12.42ZM520.01,399.6h29.81c16.81,0,25.22-4.89,25.22-14.66,0-3.81-1.72-6.87-5.16-9.19-3.44-2.32-8.01-3.48-13.73-3.48-8.94,0-17.08,2.78-24.41,8.32-7.33,5.55-11.24,11.89-11.74,19.01Z"/>
  <g>
    <line class="cls-1" x1="514.14" y1="150" x2="513.06" y2="211.97"/>
    <line class="cls-1" x1="332.86" y1="197.43" x2="362.91" y2="251.64"/>
    <line class="cls-1" x1="199.57" y1="329.14" x2="252.7" y2="361.07"/>
    <line class="cls-1" x1="150" y1="509.86" x2="211.97" y2="510.94"/>
    <line class="cls-1" x1="197.43" y1="691.14" x2="251.64" y2="661.09"/>
    <line class="cls-1" x1="329.14" y1="824.43" x2="361.07" y2="771.3"/>
    <line class="cls-1" x1="509.86" y1="874" x2="510.94" y2="812.03"/>
    <line class="cls-1" x1="691.14" y1="826.57" x2="661.09" y2="772.36"/>
    <line class="cls-1" x1="824.43" y1="694.86" x2="771.3" y2="662.93"/>
    <line class="cls-1" x1="874" y1="514.14" x2="812.03" y2="513.06"/>
    <line class="cls-1" x1="826.57" y1="332.86" x2="772.36" y2="362.91"/>
    <line class="cls-1" x1="694.86" y1="199.57" x2="662.93" y2="252.7"/>
  </g>
</svg>